<?xml version="1.0" encoding="utf-8"?>
<svg version="1.0" id="Layer_1" xmlns="http://www.w3.org/2000/svg" xmlns:xlink="http://www.w3.org/1999/xlink" x="0px" y="0px"
	 width="64px" height="64px" viewBox="0 0 64 64" enable-background="new 0 0 64 64" xml:space="preserve">
<path fill-rule="evenodd" clip-rule="evenodd" fill="#E66D17" d="M39.5,12.3c0.3-1.1-0.4-2.3-1.5-2.6c-1.1-0.3-2.3,0.4-2.6,1.5
	L24.1,52.1c-0.3,1.1,0.4,2.3,1.5,2.6c1.1,0.3,2.3-0.4,2.6-1.5L39.5,12.3z M22.8,20.3c0.7,0.9,0.6,2.3-0.3,3l-12,9.6l12,9.6
	c0.9,0.7,1.1,2.1,0.3,3c-0.7,0.9-2.1,1.1-3,0.3L5.7,34.6l-2.1-1.7l2.1-1.7l14.1-11.3C20.7,19.2,22.1,19.3,22.8,20.3z M41.3,45.5
	c-0.7-0.9-0.6-2.3,0.3-3l12-9.6l-12-9.6c-0.9-0.7-1.1-2.1-0.3-3c0.7-0.9,2.1-1.1,3-0.3l14.1,11.3l2.1,1.7l-2.1,1.7L44.3,45.8
	C43.4,46.6,42,46.4,41.3,45.5z"/>
</svg>
